<?xml version="1.0" encoding="UTF-8"?>
<svg xmlns="http://www.w3.org/2000/svg" version="1.1" width="506" height="125">
  <path d="M0 0 C1.051875 0.2475 2.10375 0.495 3.1875 0.75 C3.1875 2.73 3.1875 4.71 3.1875 6.75 C3.8475 6.75 4.5075 6.75 5.1875 6.75 C6.1775 10.215 6.1775 10.215 7.1875 13.75 C7.71859375 13.37746094 8.2496875 13.00492188 8.796875 12.62109375 C9.50328125 12.14800781 10.2096875 11.67492188 10.9375 11.1875 C11.98164063 10.47400391 11.98164063 10.47400391 13.046875 9.74609375 C15.1875 8.75 15.1875 8.75 17.375 9 C19.1875 9.75 19.1875 9.75 20.4375 11.3125 C21.99494213 16.37418692 21.55127545 20.53741518 20.0625 25.5 C17.91168669 29.22807641 15.95910416 30.74382757 12.1875 32.75 C11.5275 32.75 10.8675 32.75 10.1875 32.75 C9.6925 29.78 9.6925 29.78 9.1875 26.75 C5.21608667 27.3041507 1.86975159 28.18504308 -1.8125 29.75 C-2.8025 30.03875 -3.7925 30.3275 -4.8125 30.625 C-8.97557091 32.18615159 -11.95445996 33.98625104 -13.9375 38.0625 C-14.22625 38.949375 -14.515 39.83625 -14.8125 40.75 C-15.328125 41.86375 -15.84375 42.9775 -16.375 44.125 C-17.82057907 47.7703733 -18.38889732 50.86697541 -18.8125 54.75 C-20.44485294 66.17647059 -20.44485294 66.17647059 -24.8125 69.75 C-25.4725 69.42 -26.1325 69.09 -26.8125 68.75 C-26.6475 68.13125 -26.4825 67.5125 -26.3125 66.875 C-25.88241295 64.18695591 -25.77766038 61.89192527 -25.8125 59.1875 C-25.87366665 53.33297801 -25.40365976 47.57128155 -24.8125 41.75 C-24.70421875 40.67298828 -24.70421875 40.67298828 -24.59375 39.57421875 C-24.19709807 36.26642494 -23.53340203 33.61817005 -21.8125 30.75 C-21.1525 30.75 -20.4925 30.75 -19.8125 30.75 C-19.7196875 29.88375 -19.7196875 29.88375 -19.625 29 C-18.46300724 25.7821739 -16.60670307 24.65513846 -13.8125 22.75 C-12.16258418 22.04289322 -10.49687744 21.37056011 -8.8125 20.75 C-7.8225 20.09 -6.8325 19.43 -5.8125 18.75 C-6.3075 17.76 -6.3075 17.76 -6.8125 16.75 C-7.65554687 17.19472656 -8.49859375 17.63945312 -9.3671875 18.09765625 C-11.01074219 18.94650391 -11.01074219 18.94650391 -12.6875 19.8125 C-13.77804688 20.38097656 -14.86859375 20.94945313 -15.9921875 21.53515625 C-16.92289062 21.93605469 -17.85359375 22.33695313 -18.8125 22.75 C-19.4725 22.42 -20.1325 22.09 -20.8125 21.75 C-20.8125 22.41 -20.8125 23.07 -20.8125 23.75 C-23.45988916 25.2106285 -24.70698334 25.75 -27.8125 25.75 C-28.080625 26.389375 -28.34875 27.02875 -28.625 27.6875 C-29.8125 29.75 -29.8125 29.75 -32.8125 30.75 C-32.87308594 31.38808594 -32.93367188 32.02617188 -32.99609375 32.68359375 C-33.12177734 33.92302734 -33.12177734 33.92302734 -33.25 35.1875 C-33.37181641 36.42306641 -33.37181641 36.42306641 -33.49609375 37.68359375 C-33.8125 39.75 -33.8125 39.75 -34.8125 40.75 C-36.87391281 56.88913413 -36.87391281 56.88913413 -34.8125 72.75 C-35.8025 73.41 -36.7925 74.07 -37.8125 74.75 C-39.2975 73.76 -39.2975 73.76 -40.8125 72.75 C-38.83595381 76.27954678 -36.86335894 79.7344719 -34.5625 83.0625 C-32.8125 85.75 -32.8125 85.75 -32.8125 87.75 C-31.1625 87.42 -29.5125 87.09 -27.8125 86.75 C-27.565 85.88375 -27.3175 85.0175 -27.0625 84.125 C-25.56076095 80.07030457 -23.8340338 75.7607669 -19.8125 73.75 C-19.16036708 71.72536745 -19.16036708 71.72536745 -18.8125 69.75 C-18.1525 69.75 -17.4925 69.75 -16.8125 69.75 C-16.544375 69.0075 -16.27625 68.265 -16 67.5 C-14.85988177 64.8597262 -13.56107073 63.00857053 -11.8125 60.75 C-11.503125 60.09 -11.19375 59.43 -10.875 58.75 C-9.54820264 56.25249908 -7.9334809 54.60585829 -5.8125 52.75 C-5.1525 52.75 -4.4925 52.75 -3.8125 52.75 C-3.1525 51.1 -2.4925 49.45 -1.8125 47.75 C-1.1525 47.75 -0.4925 47.75 0.1875 47.75 C0.455625 47.110625 0.72375 46.47125 1 45.8125 C2.1875 43.75 2.1875 43.75 5.1875 42.75 C5.6825 41.76 5.6825 41.76 6.1875 40.75 C7.1875 38.75 7.1875 38.75 10.1875 37.75 C10.5175 36.76 10.8475 35.77 11.1875 34.75 C12.52083333 34.41666667 13.85416667 34.08333333 15.1875 33.75 C15.5175 32.76 15.8475 31.77 16.1875 30.75 C17.1775 30.42 18.1675 30.09 19.1875 29.75 C19.785625 29.13125 20.38375 28.5125 21 27.875 C23.52849938 25.41874346 25.9949654 24.21324503 29.1875 22.75 C29.88875 22.399375 30.59 22.04875 31.3125 21.6875 C32.240625 21.2234375 32.240625 21.2234375 33.1875 20.75 C33.785625 20.399375 34.38375 20.04875 35 19.6875 C37.99551859 18.40370632 40.96363765 18.18713388 44.1875 17.75 C45.404375 17.358125 46.62125 16.96625 47.875 16.5625 C51.1875 15.75 51.1875 15.75 53.625 16.625 C54.140625 16.99625 54.65625 17.3675 55.1875 17.75 C52.44688969 20.8331866 50.12379796 22.93510332 46.375 24.6875 C39.65971552 27.82974632 34.27570733 32.40085896 29.1875 37.75 C27.98185483 38.96101553 26.77335858 40.1691972 25.5625 41.375 C24.99273437 41.94476563 24.42296875 42.51453125 23.8359375 43.1015625 C23.29195312 43.64554688 22.74796875 44.18953125 22.1875 44.75 C21.66414063 45.31460938 21.14078125 45.87921875 20.6015625 46.4609375 C19.1875 47.75 19.1875 47.75 17.1875 47.75 C16.89875 48.53375 16.61 49.3175 16.3125 50.125 C15.1875 52.75 15.1875 52.75 13.1875 54.75 C12.6925 55.575 12.1975 56.4 11.6875 57.25 C10.1875 59.75 10.1875 59.75 8.1875 61.75 C7.6925 62.61625 7.1975 63.4825 6.6875 64.375 C6.1925 65.15875 5.6975 65.9425 5.1875 66.75 C4.5275 66.75 3.8675 66.75 3.1875 66.75 C3.084375 67.28625 2.98125 67.8225 2.875 68.375 C2.00657303 71.37502044 0.63129704 73.9879535 -0.8125 76.75 C-1.4725 76.75 -2.1325 76.75 -2.8125 76.75 C-3.1425 78.4 -3.4725 80.05 -3.8125 81.75 C-4.4725 81.75 -5.1325 81.75 -5.8125 81.75 C-5.895 82.430625 -5.9775 83.11125 -6.0625 83.8125 C-7.03810805 87.63363154 -8.77310936 90.37225925 -10.8125 93.75 C-11.1425 94.41 -11.4725 95.07 -11.8125 95.75 C-12.4725 95.75 -13.1325 95.75 -13.8125 95.75 C-13.4825 96.74 -13.1525 97.73 -12.8125 98.75 C-13.4725 98.75 -14.1325 98.75 -14.8125 98.75 C-14.998125 100.173125 -14.998125 100.173125 -15.1875 101.625 C-15.8125 104.75 -15.8125 104.75 -17.8125 106.75 C-18.18375 107.8946875 -18.18375 107.8946875 -18.5625 109.0625 C-20.217576 112.6209134 -22.50363098 114.75707199 -25.8125 116.75 C-29.33243923 117.92331308 -31.49271447 118.29611815 -34.96484375 116.859375 C-39.18903216 114.44555305 -41.46954085 112.58465295 -42.8125 107.75 C-43.8025 107.255 -43.8025 107.255 -44.8125 106.75 C-44.8125 106.09 -44.8125 105.43 -44.8125 104.75 C-45.8953125 105.1521875 -45.8953125 105.1521875 -47 105.5625 C-49.8125 105.75 -49.8125 105.75 -52.3125 103.5625 C-53.1375 102.634375 -53.9625 101.70625 -54.8125 100.75 C-57.90402889 97.73451902 -57.90402889 97.73451902 -61.8125 96.75 C-61.8125 96.09 -61.8125 95.43 -61.8125 94.75 C-62.451875 94.6675 -63.09125 94.585 -63.75 94.5 C-66.54615251 93.81522796 -68.72493121 92.91000746 -71.3125 91.6875 C-74.68029483 90.12968475 -77.05359573 89.40828143 -80.8125 89.75 C-81.4725 89.42 -82.1325 89.09 -82.8125 88.75 C-88.25574372 87.59537254 -93.36088041 87.83140756 -98.88671875 88.10546875 C-101.8125 87.75 -101.8125 87.75 -103.6875 86.1171875 C-105.09922038 83.14669254 -105.17785338 80.96847509 -105.125 77.6875 C-105.12113281 76.64464844 -105.11726563 75.60179688 -105.11328125 74.52734375 C-104.8125 71.75 -104.8125 71.75 -102.8125 68.75 C-102.39165461 66.40980681 -102.39165461 66.40980681 -102.25 63.875 C-101.78160391 58.28655006 -100.65653568 53.08863002 -99.28515625 47.6640625 C-98.47448959 44.3811975 -97.86824505 41.08447033 -97.3125 37.75 C-96.57164629 33.30487776 -95.6514908 29.09821825 -94.25 24.8125 C-93.30658016 21.77008387 -92.8125 19.6545682 -92.8125 16.4375 C-92.8125 13.06169043 -91.8413263 11.40308054 -89.8125 8.75 C-89.1525 8.75 -88.4925 8.75 -87.8125 8.75 C-87.8125 8.09 -87.8125 7.43 -87.8125 6.75 C-81.98221271 6.54259848 -77.34142415 6.6927259 -71.8125 8.75 C-70.966875 8.75 -70.12125 8.75 -69.25 8.75 C-66.28827312 8.75 -64.52136371 9.55306022 -61.8125 10.75 C-60.37769294 11.29876016 -58.94001812 11.84006369 -57.5 12.375 C-56.283125 12.82875 -55.06625 13.2825 -53.8125 13.75 C-53.8125 14.41 -53.8125 15.07 -53.8125 15.75 C-52.9771875 15.87375 -52.9771875 15.87375 -52.125 16 C-49.01361982 17.00909627 -47.1812482 18.50592276 -44.8125 20.75 C-43.5 23.5 -43.5 23.5 -42.8125 25.75 C-42.1525 25.75 -41.4925 25.75 -40.8125 25.75 C-39.8684153 24.49316898 -38.98118119 23.19328446 -38.125 21.875 C-35.97099945 18.86471775 -34.54738991 17.23118712 -30.9375 16.25 C-29.390625 16.0025 -29.390625 16.0025 -27.8125 15.75 C-27.8125 15.09 -27.8125 14.43 -27.8125 13.75 C-25.45173358 12.76000118 -23.11282115 11.8368922 -20.65234375 11.125 C-15.3972096 9.58092052 -12.50915154 7.96007536 -8.8125 3.75 C-5.55635593 0.49385593 -4.69716099 -0.30801056 0 0 Z M-4.8125 13.75 C-4.8125 15.4 -4.8125 17.05 -4.8125 18.75 C-4.4825 18.75 -4.1525 18.75 -3.8125 18.75 C-3.8125 17.1 -3.8125 15.45 -3.8125 13.75 C-4.1425 13.75 -4.4725 13.75 -4.8125 13.75 Z M-81.8125 20.75 C-82.57294527 24.78035991 -82.93668115 28.65202215 -82.8125 32.75 C-83.4725 32.75 -84.1325 32.75 -84.8125 32.75 C-84.4825 34.73 -84.1525 36.71 -83.8125 38.75 C-84.4725 38.75 -85.1325 38.75 -85.8125 38.75 C-85.4825 40.07 -85.1525 41.39 -84.8125 42.75 C-85.4725 43.08 -86.1325 43.41 -86.8125 43.75 C-87.47073114 46.65499469 -87.47073114 46.65499469 -87.875 50.0625 C-88.74976043 56.51837655 -88.74976043 56.51837655 -89.43359375 59.04296875 C-90.02358838 60.85316037 -90.02358838 60.85316037 -88.8125 62.75 C-89.8025 63.245 -89.8025 63.245 -90.8125 63.75 C-90.4825 64.74 -90.1525 65.73 -89.8125 66.75 C-90.8025 67.245 -90.8025 67.245 -91.8125 67.75 C-92.66306945 71.30692677 -92.98159807 73.24270578 -91.8125 76.75 C-86.72946314 76.86320856 -86.72946314 76.86320856 -81.8125 75.75 C-81.4825 76.41 -81.1525 77.07 -80.8125 77.75 C-78.89618923 78.3676447 -78.89618923 78.3676447 -76.625 78.75 C-67.94910494 80.52087099 -60.85581609 83.01601921 -54.8125 89.75 C-54.4825 90.41 -54.1525 91.07 -53.8125 91.75 C-53.1525 91.42 -52.4925 91.09 -51.8125 90.75 C-53.90311713 84.28809251 -58.28877047 79.57412045 -63.8125 75.75 C-65.98418063 75.00542378 -67.52907366 74.75 -69.8125 74.75 C-67.79883088 70.21924449 -65.29988902 68.44555439 -60.9296875 66.4765625 C-56.25301447 64.87165257 -52.91537977 65.22977369 -48.5 67.3125 C-47.613125 67.786875 -46.72625 68.26125 -45.8125 68.75 C-45.1525 68.42 -44.4925 68.09 -43.8125 67.75 C-44.1425 67.09 -44.4725 66.43 -44.8125 65.75 C-45.4725 65.75 -46.1325 65.75 -46.8125 65.75 C-46.4825 59.15 -46.1525 52.55 -45.8125 45.75 C-46.4725 45.75 -47.1325 45.75 -47.8125 45.75 C-47.51953125 43.73177083 -47.2265625 41.71354167 -46.93359375 39.6953125 C-46.6440703 37.66859333 -46.6440703 37.66859333 -47.8125 35.75 C-48.4725 35.75 -49.1325 35.75 -49.8125 35.75 C-49.874375 35.21375 -49.93625 34.6775 -50 34.125 C-51.21285264 30.57973843 -53.25860926 28.4907608 -55.8125 25.75 C-56.4725 25.75 -57.1325 25.75 -57.8125 25.75 C-58.3075 24.76 -58.3075 24.76 -58.8125 23.75 C-60.4625 23.75 -62.1125 23.75 -63.8125 23.75 C-63.8125 23.09 -63.8125 22.43 -63.8125 21.75 C-65.17375 21.564375 -65.17375 21.564375 -66.5625 21.375 C-69.8125 20.75 -69.8125 20.75 -71.8125 19.6875 C-75.56119564 17.93029892 -78.8594147 17.7969147 -81.8125 20.75 Z M-43.8125 68.75 C-43.8125 69.41 -43.8125 70.07 -43.8125 70.75 C-43.1525 70.42 -42.4925 70.09 -41.8125 69.75 C-42.4725 69.42 -43.1325 69.09 -43.8125 68.75 Z M-51.8125 91.75 C-51.8125 93.07 -51.8125 94.39 -51.8125 95.75 C-51.1525 95.42 -50.4925 95.09 -49.8125 94.75 C-50.1425 93.76 -50.4725 92.77 -50.8125 91.75 C-51.1425 91.75 -51.4725 91.75 -51.8125 91.75 Z M-49.8125 95.75 C-49.8125 96.41 -49.8125 97.07 -49.8125 97.75 C-49.1525 97.42 -48.4925 97.09 -47.8125 96.75 C-48.4725 96.42 -49.1325 96.09 -49.8125 95.75 Z M-47.8125 97.75 C-46.8125 99.75 -46.8125 99.75 -46.8125 99.75 Z M-47.8125 100.75 C-47.8125 101.74 -47.8125 102.73 -47.8125 103.75 C-46.8225 103.42 -45.8325 103.09 -44.8125 102.75 C-45.8025 102.09 -46.7925 101.43 -47.8125 100.75 Z " fill="#3B77BB" transform="translate(106.8125,2.25)"></path>
  <path d="M0 0 C5.48625 -0.061875 10.9725 -0.12375 16.625 -0.1875 C18.34541504 -0.21481201 20.06583008 -0.24212402 21.83837891 -0.27026367 C23.21776632 -0.27903398 24.59716156 -0.28667663 25.9765625 -0.29296875 C26.67998779 -0.30831665 27.38341309 -0.32366455 28.1081543 -0.33947754 C34.40593794 -0.34278868 38.24920372 1.36592347 42.8125 5.625 C45.70056924 9.38229396 46.29366732 13.33488484 46 18 C44.42261143 22.31706346 41.96978886 25.51817857 39 29 C39.886875 29.185625 40.77375 29.37125 41.6875 29.5625 C46.11599178 31.48429832 48.21054655 33.49603666 50 38 C50.95869884 44.07691363 51.0308417 50.03952277 48.0625 55.5625 C44.67103923 59.76719168 41.22565608 61.65575968 36 63 C29.84169167 63.6396206 23.61543255 63.37515914 17.4375 63.25 C8.8059375 63.12625 8.8059375 63.12625 0 63 C0 42.21 0 21.42 0 0 Z M14 10 C14 14.95 14 19.9 14 25 C17.0628125 25.0928125 17.0628125 25.0928125 20.1875 25.1875 C21.91033203 25.23970703 21.91033203 25.23970703 23.66796875 25.29296875 C27.57912447 24.9490805 30.2059851 23.7940149 33 21 C33.50070321 17.62642666 33.50070321 17.62642666 33 14 C30.18142501 10.97895649 28.58787447 10.06467266 24.44921875 9.609375 C23.20785156 9.65578125 21.96648437 9.7021875 20.6875 9.75 C18.480625 9.8325 16.27375 9.915 14 10 Z M14 35 C14 40.94 14 46.88 14 53 C16.536875 53.061875 19.07375 53.12375 21.6875 53.1875 C22.87218872 53.22846802 22.87218872 53.22846802 24.08081055 53.27026367 C28.61722053 53.32360621 31.40191876 52.78188134 35 50 C37.13272462 47.28562321 36.99745956 45.95173167 36.8125 42.4375 C36.02487718 39.10524961 35.70318387 37.94629239 33 36 C29.69428083 34.34714041 26.004622 34.8994882 22.375 34.9375 C18.229375 34.9684375 18.229375 34.9684375 14 35 Z " fill="#FFFFFF" transform="translate(152,36)"></path>
  <path d="M0 0 C0.515625 0.37125 1.03125 0.7425 1.5625 1.125 C-1.17811031 4.2081866 -3.50120204 6.31010332 -7.25 8.0625 C-13.96528448 11.20474632 -19.34929267 15.77585896 -24.4375 21.125 C-25.64314517 22.33601553 -26.85164142 23.5441972 -28.0625 24.75 C-28.63226563 25.31976563 -29.20203125 25.88953125 -29.7890625 26.4765625 C-30.33304687 27.02054688 -30.87703125 27.56453125 -31.4375 28.125 C-31.96085937 28.68960938 -32.48421875 29.25421875 -33.0234375 29.8359375 C-34.4375 31.125 -34.4375 31.125 -36.4375 31.125 C-36.72625 31.90875 -37.015 32.6925 -37.3125 33.5 C-38.4375 36.125 -38.4375 36.125 -40.4375 38.125 C-40.9325 38.95 -41.4275 39.775 -41.9375 40.625 C-43.4375 43.125 -43.4375 43.125 -45.4375 45.125 C-45.9325 45.99125 -46.4275 46.8575 -46.9375 47.75 C-47.4325 48.53375 -47.9275 49.3175 -48.4375 50.125 C-49.0975 50.125 -49.7575 50.125 -50.4375 50.125 C-50.540625 50.66125 -50.64375 51.1975 -50.75 51.75 C-51.61842697 54.75002044 -52.99370296 57.3629535 -54.4375 60.125 C-55.0975 60.125 -55.7575 60.125 -56.4375 60.125 C-56.7675 61.775 -57.0975 63.425 -57.4375 65.125 C-58.0975 65.125 -58.7575 65.125 -59.4375 65.125 C-59.52 65.805625 -59.6025 66.48625 -59.6875 67.1875 C-60.66310805 71.00863154 -62.39810936 73.74725925 -64.4375 77.125 C-64.7675 77.785 -65.0975 78.445 -65.4375 79.125 C-66.0975 79.125 -66.7575 79.125 -67.4375 79.125 C-67.1075 80.115 -66.7775 81.105 -66.4375 82.125 C-67.0975 82.125 -67.7575 82.125 -68.4375 82.125 C-68.7675 83.775 -69.0975 85.425 -69.4375 87.125 C-70.4275 87.125 -71.4175 87.125 -72.4375 87.125 C-72.4375 86.465 -72.4375 85.805 -72.4375 85.125 C-73.4275 85.455 -74.4175 85.785 -75.4375 86.125 C-80.19105785 86.58207287 -83.60019729 86.17961735 -87.6875 83.5703125 C-92.97336086 79.20475777 -96.45468115 73.14880499 -100 67.375 C-103.88639765 61.21363787 -106.9681897 57.51087176 -114.3125 55.8125 C-115.68445006 55.5657301 -117.05873202 55.33028323 -118.4375 55.125 C-118.4375 54.135 -118.4375 53.145 -118.4375 52.125 C-115.32646889 49.46924174 -113.12631355 48.22704645 -109.0625 47.625 C-104.59003464 48.24189177 -101.30491447 49.87486795 -97.4375 52.125 C-97.4375 52.785 -97.4375 53.445 -97.4375 54.125 C-96.7775 54.455 -96.1175 54.785 -95.4375 55.125 C-94.59772866 56.32181698 -93.81295983 57.55775028 -93.0625 58.8125 C-91.48012546 61.4278787 -89.86749447 63.98857558 -88.125 66.5 C-86.4375 69.125 -86.4375 69.125 -86.4375 71.125 C-83.9625 70.63 -83.9625 70.63 -81.4375 70.125 C-81.19 69.25875 -80.9425 68.3925 -80.6875 67.5 C-79.18576095 63.44530457 -77.4590338 59.1357669 -73.4375 57.125 C-72.78536708 55.10036745 -72.78536708 55.10036745 -72.4375 53.125 C-71.7775 53.125 -71.1175 53.125 -70.4375 53.125 C-70.169375 52.3825 -69.90125 51.64 -69.625 50.875 C-68.48488177 48.2347262 -67.18607073 46.38357053 -65.4375 44.125 C-65.128125 43.465 -64.81875 42.805 -64.5 42.125 C-63.17320264 39.62749908 -61.5584809 37.98085829 -59.4375 36.125 C-58.7775 36.125 -58.1175 36.125 -57.4375 36.125 C-56.7775 34.475 -56.1175 32.825 -55.4375 31.125 C-54.7775 31.125 -54.1175 31.125 -53.4375 31.125 C-53.169375 30.485625 -52.90125 29.84625 -52.625 29.1875 C-51.4375 27.125 -51.4375 27.125 -48.4375 26.125 C-48.1075 25.465 -47.7775 24.805 -47.4375 24.125 C-46.4375 22.125 -46.4375 22.125 -43.4375 21.125 C-42.9425 19.64 -42.9425 19.64 -42.4375 18.125 C-41.10416667 17.79166667 -39.77083333 17.45833333 -38.4375 17.125 C-37.9425 15.64 -37.9425 15.64 -37.4375 14.125 C-36.4475 13.795 -35.4575 13.465 -34.4375 13.125 C-33.839375 12.50625 -33.24125 11.8875 -32.625 11.25 C-30.09650062 8.79374346 -27.6300346 7.58824503 -24.4375 6.125 C-23.385625 5.5990625 -23.385625 5.5990625 -22.3125 5.0625 C-21.69375 4.753125 -21.075 4.44375 -20.4375 4.125 C-19.839375 3.774375 -19.24125 3.42375 -18.625 3.0625 C-15.62948141 1.77870632 -12.66136235 1.56213388 -9.4375 1.125 C-7.6121875 0.5371875 -7.6121875 0.5371875 -5.75 -0.0625 C-2.4375 -0.875 -2.4375 -0.875 0 0 Z " fill="#4DB0A7" transform="translate(160.4375,18.875)"></path>
  <path d="M0 0 C4.29 0 8.58 0 13 0 C13 22.11 13 44.22 13 67 C8.71 67 4.42 67 0 67 C-0.33 65.68 -0.66 64.36 -1 63 C-1.598125 63.639375 -2.19625 64.27875 -2.8125 64.9375 C-6.97064811 68.85803965 -11.63627319 68.28142566 -17.05859375 68.203125 C-21.72664557 67.88076286 -24.36330905 66.68413126 -27.6171875 63.3359375 C-33.58637799 56.16719677 -34.75570358 48.11567448 -34 39 C-33.05458249 31.87391555 -30.85358225 27.11299881 -25.9375 21.75 C-20.8686165 18.73023962 -15.2173018 17.41546806 -9.35546875 18.48046875 C-5.91989172 19.57385918 -3.57186414 20.42813586 -1 23 C-0.67 15.41 -0.34 7.82 0 0 Z M-18 32 C-20.68364593 35.29356546 -20.93434003 39.84883066 -21 44 C-20.55518159 48.29991132 -19.69634979 51.85798635 -17.4375 55.5625 C-13.69597289 57.76904163 -10.22360128 57.88838672 -6 57 C-2.71824682 54.47031526 -1.30756223 52.92268669 0 49 C0.49788768 42.90087597 0.9028523 37.03593845 -3 32 C-9.0713044 28.3930119 -11.7483185 28.92899856 -18 32 Z " fill="#FFFFFF" transform="translate(400,32)"></path>
  <path d="M0 0 C1.051875 0.2475 2.10375 0.495 3.1875 0.75 C3.1875 2.73 3.1875 4.71 3.1875 6.75 C3.8475 6.75 4.5075 6.75 5.1875 6.75 C5.8475 9.06 6.5075 11.37 7.1875 13.75 C7.71859375 13.37746094 8.2496875 13.00492188 8.796875 12.62109375 C9.50328125 12.14800781 10.2096875 11.67492188 10.9375 11.1875 C11.63359375 10.71183594 12.3296875 10.23617188 13.046875 9.74609375 C15.1875 8.75 15.1875 8.75 17.375 9 C19.1875 9.75 19.1875 9.75 20.4375 11.3125 C21.99494213 16.37418692 21.55127545 20.53741518 20.0625 25.5 C17.91168669 29.22807641 15.95910416 30.74382757 12.1875 32.75 C11.5275 32.75 10.8675 32.75 10.1875 32.75 C9.6925 29.78 9.6925 29.78 9.1875 26.75 C5.21608667 27.3041507 1.86975159 28.18504308 -1.8125 29.75 C-2.8025 30.03875 -3.7925 30.3275 -4.8125 30.625 C-8.97557091 32.18615159 -11.95445996 33.98625104 -13.9375 38.0625 C-14.22625 38.949375 -14.515 39.83625 -14.8125 40.75 C-15.328125 41.86375 -15.84375 42.9775 -16.375 44.125 C-17.82057907 47.7703733 -18.38889732 50.86697541 -18.8125 54.75 C-20.44485294 66.17647059 -20.44485294 66.17647059 -24.8125 69.75 C-25.4725 69.42 -26.1325 69.09 -26.8125 68.75 C-26.6475 68.13125 -26.4825 67.5125 -26.3125 66.875 C-25.88241295 64.18695591 -25.77766038 61.89192527 -25.8125 59.1875 C-25.87366665 53.33297801 -25.40365976 47.57128155 -24.8125 41.75 C-24.7403125 41.03199219 -24.668125 40.31398437 -24.59375 39.57421875 C-24.19709807 36.26642494 -23.53340203 33.61817005 -21.8125 30.75 C-21.1525 30.75 -20.4925 30.75 -19.8125 30.75 C-19.7196875 29.88375 -19.7196875 29.88375 -19.625 29 C-18.46300724 25.7821739 -16.60670307 24.65513846 -13.8125 22.75 C-12.16258418 22.04289322 -10.49687744 21.37056011 -8.8125 20.75 C-7.8225 20.09 -6.8325 19.43 -5.8125 18.75 C-6.3075 17.76 -6.3075 17.76 -6.8125 16.75 C-7.65554687 17.19472656 -8.49859375 17.63945312 -9.3671875 18.09765625 C-11.01074219 18.94650391 -11.01074219 18.94650391 -12.6875 19.8125 C-13.77804688 20.38097656 -14.86859375 20.94945313 -15.9921875 21.53515625 C-16.92289063 21.93605469 -17.85359375 22.33695313 -18.8125 22.75 C-19.4725 22.42 -20.1325 22.09 -20.8125 21.75 C-20.8125 22.41 -20.8125 23.07 -20.8125 23.75 C-23.45988916 25.2106285 -24.70698334 25.75 -27.8125 25.75 C-28.080625 26.389375 -28.34875 27.02875 -28.625 27.6875 C-29.8125 29.75 -29.8125 29.75 -32.8125 30.75 C-32.87308594 31.38808594 -32.93367188 32.02617188 -32.99609375 32.68359375 C-33.07988281 33.50988281 -33.16367188 34.33617187 -33.25 35.1875 C-33.33121094 36.01121094 -33.41242188 36.83492187 -33.49609375 37.68359375 C-33.8125 39.75 -33.8125 39.75 -34.8125 40.75 C-36.87391281 56.88913413 -36.87391281 56.88913413 -34.8125 72.75 C-36.2975 73.74 -36.2975 73.74 -37.8125 74.75 C-38.98512904 73.63121617 -40.15045138 72.50476949 -41.3125 71.375 C-41.9621875 70.74851562 -42.611875 70.12203125 -43.28125 69.4765625 C-44.8125 67.75 -44.8125 67.75 -44.8125 65.75 C-45.4725 65.75 -46.1325 65.75 -46.8125 65.75 C-46.79509766 63.77966797 -46.79509766 63.77966797 -46.77734375 61.76953125 C-46.76796172 60.03385559 -46.75886196 58.29817839 -46.75 56.5625 C-46.74162109 55.69818359 -46.73324219 54.83386719 -46.72460938 53.94335938 C-46.70853188 49.74713231 -46.73690962 45.84063114 -47.8125 41.75 C-46.8225 41.09 -45.8325 40.43 -44.8125 39.75 C-43.86219667 37.01245622 -43.86219667 37.01245622 -43.25 33.875 C-41.85975074 27.48142431 -39.86228522 22.19799734 -34.8125 17.75 C-32.45125051 16.71144213 -30.3678798 16.25105486 -27.8125 15.75 C-27.8125 15.09 -27.8125 14.43 -27.8125 13.75 C-25.45173358 12.76000118 -23.11282115 11.8368922 -20.65234375 11.125 C-15.3972096 9.58092052 -12.50915154 7.96007536 -8.8125 3.75 C-5.55635593 0.49385593 -4.69716099 -0.30801056 0 0 Z M-4.8125 13.75 C-4.8125 15.4 -4.8125 17.05 -4.8125 18.75 C-4.4825 18.75 -4.1525 18.75 -3.8125 18.75 C-3.8125 17.1 -3.8125 15.45 -3.8125 13.75 C-4.1425 13.75 -4.4725 13.75 -4.8125 13.75 Z " fill="#20879D" transform="translate(106.8125,2.25)"></path>
  <path d="M0 0 C4.29 0 8.58 0 13 0 C13.33 11.55 13.66 23.1 14 35 C15.876875 32.36 17.75375 29.72 19.6875 27 C25.43370488 19.44286099 25.43370488 19.44286099 30.7578125 17.9375 C33.97793267 17.9941175 36.86870273 18.26201832 40 19 C39.40217476 22.18257878 38.41226379 24.05248568 36.34765625 26.53125 C35.55391602 27.49998047 35.55391602 27.49998047 34.74414062 28.48828125 C34.18919922 29.15214844 33.63425781 29.81601562 33.0625 30.5 C31.96667304 31.82011902 30.87410827 33.14295422 29.78515625 34.46875 C29.29926025 35.05076172 28.81336426 35.63277344 28.31274414 36.23242188 C26.94617901 38.07246866 25.96338758 39.92457326 25 42 C27.08118628 44.89738185 29.16533139 47.79262293 31.25 50.6875 C32.12978516 51.91243164 32.12978516 51.91243164 33.02734375 53.16210938 C35.4278687 56.49317489 37.81933707 59.77941639 40.421875 62.95703125 C42 65 42 65 42 67 C36.90299625 68.14206723 31.93533242 69.01522226 27 67 C21.45300427 62.06660999 17.72862185 55.33802838 14 49 C13.67 54.94 13.34 60.88 13 67 C8.71 67 4.42 67 0 67 C0 44.89 0 22.78 0 0 Z " fill="#FFFFFF" transform="translate(322,32)"></path>
  <path d="M0 0 C4.29 0 8.58 0 13 0 C15.99329128 6.95500032 18.76947814 13.9324396 21.3125 21.0625 C21.57885254 21.80040771 21.84520508 22.53831543 22.11962891 23.29858398 C23.18429936 26.32167485 24 28.77060999 24 32 C24.66 32 25.32 32 26 32 C26.24621094 30.7521875 26.49242187 29.504375 26.74609375 28.21875 C28.02640471 22.46129879 30.01058757 17.02070895 32.0625 11.5 C32.60874023 9.99953125 32.60874023 9.99953125 33.16601562 8.46875 C35.85925752 1.14074248 35.85925752 1.14074248 37 0 C39.01964199 -0.07244053 41.04167124 -0.08377188 43.0625 -0.0625 C44.71958984 -0.04896484 44.71958984 -0.04896484 46.41015625 -0.03515625 C47.26480469 -0.02355469 48.11945313 -0.01195312 49 0 C48.33723927 5.52094836 46.54751144 10.39673 44.61328125 15.5703125 C44.27378952 16.48779266 43.93429779 17.40527283 43.58451843 18.35055542 C42.86512621 20.289724 42.14296266 22.22786645 41.41821289 24.16503906 C40.32514512 27.09114938 39.2450269 30.02180693 38.16601562 32.953125 C27.46707502 61.81314775 27.46707502 61.81314775 19 67 C15.48262679 68.17245774 12.6424868 68.13266285 8.9375 68.125 C7.68839844 68.12757812 6.43929688 68.13015625 5.15234375 68.1328125 C2 68 2 68 0 67 C0.33 63.7 0.66 60.4 1 57 C3.94007566 56.01997478 5.42455392 55.99950842 8.4375 56.1875 C11.80384513 56.23128986 12.68375058 56.22928083 15.5 54.1875 C17.15826655 51.98470892 17.15826655 51.98470892 18 49 C17.23200454 46.57157512 16.39590454 44.29374829 15.4296875 41.9453125 C15.15158234 41.24791962 14.87347717 40.55052673 14.58694458 39.83200073 C13.69177179 37.59268102 12.78376052 35.35883552 11.875 33.125 C11.28557463 31.65920921 10.69702364 30.1930665 10.109375 28.7265625 C8.9569303 25.85257355 7.80281548 22.97926563 6.64746094 20.10644531 C6.09800625 18.73775102 5.54884487 17.36893894 5 16 C4.60923279 15.02540833 4.60923279 15.02540833 4.21057129 14.03112793 C3.49125182 12.22882465 2.78054441 10.42309122 2.0703125 8.6171875 C1.66828613 7.59995605 1.26625977 6.58272461 0.85205078 5.53466797 C0 3 0 3 0 0 Z " fill="#FFFFFF" transform="translate(447,51)"></path>
  <path d="M0 0 C5.92671498 5.7950102 8.12083402 11.65307326 8.4375 19.8125 C8.22678487 26.75731956 6.91322773 33.48014373 2.38671875 38.94921875 C-3.90178927 44.70787465 -10.51670297 45.40103389 -18.8046875 45.25 C-24.42135395 44.81055421 -28.27500724 43.37215333 -32.75 39.8125 C-39.27305839 31.65867702 -40.09927783 24.16935791 -39.27929688 13.99560547 C-38.4473317 8.051127 -35.66425267 3.66425267 -31.5 -0.5 C-21.66443329 -6.40134003 -9.5595166 -6.6788587 0 0 Z M-23 9 C-27.20133136 14.46655988 -26.77013618 20.40001571 -26 27 C-24.74232471 30.24161379 -23.18527516 32.40736242 -20 34 C-14.28665134 34.49002712 -14.28665134 34.49002712 -9.125 32.375 C-5.82844212 28.69061178 -5.13715423 25.48126564 -4.6875 20.625 C-5.05589912 16.35157021 -5.63044173 12.64042863 -8 9 C-13.32782125 5.3756318 -17.63283795 5.56642253 -23 9 Z " fill="#FFFFFF" transform="translate(304,55)"></path>
  <path d="M0 0 C5.92671498 5.7950102 8.12083402 11.65307326 8.4375 19.8125 C8.22678487 26.75731956 6.91322773 33.48014373 2.38671875 38.94921875 C-3.90178927 44.70787465 -10.51670297 45.40103389 -18.8046875 45.25 C-24.42135395 44.81055421 -28.27500724 43.37215333 -32.75 39.8125 C-39.27305839 31.65867702 -40.09927783 24.16935791 -39.27929688 13.99560547 C-38.4473317 8.051127 -35.66425267 3.66425267 -31.5 -0.5 C-21.66443329 -6.40134003 -9.5595166 -6.6788587 0 0 Z M-23 9 C-27.20133136 14.46655988 -26.77013618 20.40001571 -26 27 C-24.74232471 30.24161379 -23.18527516 32.40736242 -20 34 C-14.28665134 34.49002712 -14.28665134 34.49002712 -9.125 32.375 C-5.82844212 28.69061178 -5.13715423 25.48126564 -4.6875 20.625 C-5.05589912 16.35157021 -5.63044173 12.64042863 -8 9 C-13.32782125 5.3756318 -17.63283795 5.56642253 -23 9 Z " fill="#FFFFFF" transform="translate(249,55)"></path>
  <path d="M0 0 C4.29 0 8.58 0 13 0 C13.33 18.48 13.66 36.96 14 56 C15.98 56.66 17.96 57.32 20 58 C20.19412181 59.47831221 20.38012131 60.95769316 20.5625 62.4375 C20.66691406 63.26121094 20.77132813 64.08492188 20.87890625 64.93359375 C20.91886719 65.61550781 20.95882813 66.29742187 21 67 C19.21927258 68.78072742 16.72356123 68.25615294 14.3125 68.3125 C10.321589 68.26504565 8.08979126 68.03870313 4.375 66.4375 C-1.48775529 60.42046167 -0.26219786 51.69226454 -0.1953125 43.84765625 C-0.1924826 42.59238632 -0.18965271 41.33711639 -0.18673706 40.04380798 C-0.17747127 36.72785653 -0.15954299 33.41218699 -0.1373291 30.09631348 C-0.11676595 26.70420755 -0.10771309 23.31207234 -0.09765625 19.91992188 C-0.07565121 13.2798608 -0.04114964 6.63996891 0 0 Z " fill="#FFFFFF" transform="translate(425,32)"></path>
  <path d="M0 0 C-1.35428031 2.70856062 -3.39152813 3.37938104 -5.96484375 4.80078125 C-11.61814908 8.13199955 -16.48635286 12.25488378 -21 17 C-22.20564517 18.21101553 -23.41414142 19.4191972 -24.625 20.625 C-25.19476563 21.19476563 -25.76453125 21.76453125 -26.3515625 22.3515625 C-26.89554688 22.89554688 -27.43953125 23.43953125 -28 24 C-28.52335937 24.56460938 -29.04671875 25.12921875 -29.5859375 25.7109375 C-31 27 -31 27 -33 27 C-33.28875 27.78375 -33.5775 28.5675 -33.875 29.375 C-35 32 -35 32 -37 34 C-37.495 34.825 -37.99 35.65 -38.5 36.5 C-40 39 -40 39 -42 41 C-42.495 41.86625 -42.99 42.7325 -43.5 43.625 C-43.995 44.40875 -44.49 45.1925 -45 46 C-45.66 46 -46.32 46 -47 46 C-47.103125 46.53625 -47.20625 47.0725 -47.3125 47.625 C-48.18092697 50.62502044 -49.55620296 53.2379535 -51 56 C-51.66 56 -52.32 56 -53 56 C-53.33 57.65 -53.66 59.3 -54 61 C-54.66 61 -55.32 61 -56 61 C-56.0825 61.680625 -56.165 62.36125 -56.25 63.0625 C-57.22560805 66.88363154 -58.96060936 69.62225925 -61 73 C-61.33 73.66 -61.66 74.32 -62 75 C-62.66 75 -63.32 75 -64 75 C-63.67 75.99 -63.34 76.98 -63 78 C-63.66 78 -64.32 78 -65 78 C-65 79.32 -65 80.64 -65 82 C-65.66 82 -66.32 82 -67 82 C-67 81.34 -67 80.68 -67 80 C-68.216875 80.0825 -69.43375 80.165 -70.6875 80.25 C-73.93346141 80.24425494 -74.95852884 80.02434177 -77.875 78.3125 C-80.0602671 75.93441522 -81.06234889 74.06867635 -82 71 C-81.34 71.33 -80.68 71.66 -80 72 C-76.71618871 72.92007728 -76.71618871 72.92007728 -73 72 C-70.04435238 69.10105545 -68.10380584 65.54195437 -66 62 C-64.25602461 59.07969057 -62.50578872 56.16322232 -60.75 53.25 C-60.28255371 52.47350098 -59.81510742 51.69700195 -59.33349609 50.89697266 C-48.79544215 33.63951991 -35.1719659 18.02019391 -18.375 6.6875 C-17.44276611 6.05618164 -17.44276611 6.05618164 -16.49169922 5.41210938 C-4.95408154 -2.17979588 -4.95408154 -2.17979588 0 0 Z " fill="#238A9F" transform="translate(157,23)"></path>
  <path d="M0 0 C2.4375 0.1875 2.4375 0.1875 5 1 C7.42465315 3.88649185 7.36235431 7.23769032 7.24609375 10.91015625 C6.63606046 16.09059767 4.98854027 19.21320264 0.9375 22.4375 C-2 24 -2 24 -4 24 C-4.495 21.03 -4.495 21.03 -5 18 C-8.97141333 18.5541507 -12.31774841 19.43504308 -16 21 C-16.99 21.28875 -17.98 21.5775 -19 21.875 C-23.16307091 23.43615159 -26.14195996 25.23625104 -28.125 29.3125 C-28.558125 30.6428125 -28.558125 30.6428125 -29 32 C-29.515625 33.11375 -30.03125 34.2275 -30.5625 35.375 C-32.00807907 39.0203733 -32.57639732 42.11697541 -33 46 C-34.63235294 57.42647059 -34.63235294 57.42647059 -39 61 C-39.66 60.67 -40.32 60.34 -41 60 C-40.7525 59.071875 -40.7525 59.071875 -40.5 58.125 C-40.06991295 55.43695591 -39.96516038 53.14192527 -40 50.4375 C-40.06116665 44.58297801 -39.59115976 38.82128155 -39 33 C-38.89171875 31.92298828 -38.89171875 31.92298828 -38.78125 30.82421875 C-38.38459807 27.51642494 -37.72090203 24.86817005 -36 22 C-35.34 22 -34.68 22 -34 22 C-33.938125 21.4225 -33.87625 20.845 -33.8125 20.25 C-32.65050724 17.0321739 -30.79420307 15.90513846 -28 14 C-24.22905405 12.29409588 -20.69171351 11.07545966 -16.5625 10.625 C-12.84583373 9.97295329 -11.82820065 9.29723578 -9 7 C-8.30519531 6.48179688 -7.61039063 5.96359375 -6.89453125 5.4296875 C-6.20746094 4.91664062 -5.52039063 4.40359375 -4.8125 3.875 C-4.11769531 3.35679688 -3.42289063 2.83859375 -2.70703125 2.3046875 C-1.06593783 1.11007661 -1.06593783 1.11007661 0 0 Z " fill="#51B1A5" transform="translate(121,11)"></path>
  <path d="M0 0 C0.66 0.33 1.32 0.66 2 1 C1.67 1.66 1.34 2.32 1 3 C1.556875 3.06316406 2.11375 3.12632813 2.6875 3.19140625 C9.46079772 4.27833747 13.56586352 6.77718312 18 12 C20.18665664 15.26779171 22.19602402 18.57697256 24.19140625 21.96484375 C27.52221855 27.55456547 30.60680876 31.8287275 37 34 C40.3506241 34.2260541 43.64818176 34.17885196 47 34 C47 34.66 47 35.32 47 36 C47.99 36.33 48.98 36.66 50 37 C49.34 37.66 48.68 38.32 48 39 C47.7525 39.763125 47.505 40.52625 47.25 41.3125 C45.594924 44.8709134 43.30886902 47.00707199 40 49 C36.48006077 50.17331308 34.31978553 50.54611815 30.84765625 49.109375 C26.62346784 46.69555305 24.34295915 44.83465295 23 40 C22.34 39.67 21.68 39.34 21 39 C21 38.34 21 37.68 21 37 C18.525 37.495 18.525 37.495 16 38 C14.68 36.35 13.36 34.7 12 33 C14.97 32.505 14.97 32.505 18 32 C17.731875 31.46375 17.46375 30.9275 17.1875 30.375 C16.3166268 28.63325359 15.46518696 26.88175455 14.625 25.125 C13.0310663 21.92197541 13.0310663 21.92197541 10.875 18.8125 C9 16 9 16 8 13 C6.15028304 11.94978897 6.15028304 11.94978897 4 11 C3.34 10.484375 2.68 9.96875 2 9.4375 C-0.04443806 7.96806014 -1.54522028 7.43835352 -4 7 C-3.43628586 3.73045798 -2.50037734 2.17424117 0 0 Z M18 33 C18 33.99 18 34.98 18 36 C18.99 35.67 19.98 35.34 21 35 C20.01 34.34 19.02 33.68 18 33 Z " fill="#1F94A4" transform="translate(41,70)"></path>
  <path d="M0 0 C2 1.75 2 1.75 4 4 C4 5.32 4 6.64 4 8 C4.66 8 5.32 8 6 8 C6.85599914 13.42132786 6.78375472 17.53087945 6 23 C5.86270933 25.73078157 5.85959877 28.45378086 5.875 31.1875 C5.87113281 31.88552734 5.86726563 32.58355469 5.86328125 33.30273438 C5.86970035 36.6759727 5.9503179 39.77597641 7 43 C6.01 43.66 5.02 44.32 4 45 C2.82737096 43.88121617 1.66204862 42.75476949 0.5 41.625 C-0.1496875 40.99851563 -0.799375 40.37203125 -1.46875 39.7265625 C-3 38 -3 38 -3 36 C-3.66 36 -4.32 36 -5 36 C-4.98259766 34.02966797 -4.98259766 34.02966797 -4.96484375 32.01953125 C-4.95546172 30.28385559 -4.94636196 28.54817839 -4.9375 26.8125 C-4.92912109 25.94818359 -4.92074219 25.08386719 -4.91210938 24.19335938 C-4.89603188 19.99713231 -4.92440962 16.09063114 -6 12 C-5.01 11.34 -4.02 10.68 -3 10 C-1.98675674 7.59027402 -1.98675674 7.59027402 -1.3125 4.875 C-1.06113281 3.96492188 -0.80976562 3.05484375 -0.55078125 2.1171875 C-0.36902344 1.41851562 -0.18726562 0.71984375 0 0 Z " fill="#306FA2" transform="translate(65,32)"></path>
  <path d="M0 0 C2.4375 0.375 2.4375 0.375 5 1 C6.43968406 3.87936812 6.302823 5.79007619 6 9 C4.85137305 11.50290327 3.49143857 13.66962723 2 16 C1.01 15.67 0.02 15.34 -1 15 C-0.835 14.38125 -0.67 13.7625 -0.5 13.125 C0.20075317 8.74529271 0.07734251 4.42571011 0 0 Z " fill="#469E98" transform="translate(81,56)"></path>
  <path d="M0 0 C2 2 2 2 2.22705078 4.24658203 C2.21657715 5.15778809 2.20610352 6.06899414 2.1953125 7.0078125 C2.18886719 7.99394531 2.18242188 8.98007812 2.17578125 9.99609375 C2.15902344 11.02863281 2.14226563 12.06117187 2.125 13.125 C2.11597656 14.16527344 2.10695312 15.20554687 2.09765625 16.27734375 C2.07403747 18.85179092 2.04110149 21.42578212 2 24 C1.34 24.33 0.68 24.66 0 25 C0.01740234 23.02966797 0.01740234 23.02966797 0.03515625 21.01953125 C0.04453828 19.28385559 0.05363804 17.54817839 0.0625 15.8125 C0.07087891 14.94818359 0.07925781 14.08386719 0.08789062 13.19335938 C0.1041102 8.96005062 -0.07686293 5.14995855 -1 1 C-0.67 0.67 -0.34 0.34 0 0 Z " fill="#1D3966" transform="translate(60,43)"></path>
  <path d="M0 0 C0.33 0 0.66 0 1 0 C1 4.29 1 8.58 1 13 C-0.98 13.99 -0.98 13.99 -3 15 C-3.81171228 17.55519921 -3.81171228 17.55519921 -4 20 C-4.33 19.34 -4.66 18.68 -5 18 C-4.690625 17.2575 -4.38125 16.515 -4.0625 15.75 C-2.81658881 13.04416574 -2.81658881 13.04416574 -3.0625 10.125 C-2.98171022 6.08551085 -1.73994625 3.62488802 0 0 Z " fill="#2F54A8" transform="translate(9,47)"></path>
  <path d="M0 0 C0.99 0.33 1.98 0.66 3 1 C1.17975807 4.64048386 -3.35651318 5.68988674 -6.921875 7.3671875 C-9.94806835 8.9724525 -12.40309378 10.77820245 -15 13 C-14.875 10.6875 -14.875 10.6875 -14 8 C-9.13793103 5 -9.13793103 5 -6 5 C-6 4.34 -6 3.68 -6 3 C-5.195625 2.690625 -4.39125 2.38125 -3.5625 2.0625 C-1.10919595 1.23664655 -1.10919595 1.23664655 0 0 Z " fill="#1C6C8C" transform="translate(85,13)"></path>
  <path d="M0 0 C-1.18075019 2.36150039 -2.12464639 2.87241994 -4.375 4.1875 C-4.98085937 4.55230469 -5.58671875 4.91710937 -6.2109375 5.29296875 C-8 6 -8 6 -11 5 C-11 4.01 -11 3.02 -11 2 C-3.57142857 -1.57142857 -3.57142857 -1.57142857 0 0 Z " fill="#249294" transform="translate(157,23)"></path>
  <path d="M0 0 C0.66 0.33 1.32 0.66 2 1 C2 3.62113708 1.68707555 5.50935112 1 8 C-0.65 7.67 -2.3 7.34 -4 7 C-3.43628586 3.73045798 -2.50037734 2.17424117 0 0 Z " fill="#2F798B" transform="translate(41,70)"></path>
  <path d="M0 0 C3 0 3 0 6 1 C6.6875 3.0625 6.6875 3.0625 7 5 C6.01 5.66 5.02 6.32 4 7 C2.35 5.02 0.7 3.04 -1 1 C-0.67 0.67 -0.34 0.34 0 0 Z " fill="#2E5986" transform="translate(65,70)"></path>
  <path d="M0 0 C0 0.99 0 1.98 0 3 C1.32 2.67 2.64 2.34 4 2 C4.33 3.32 4.66 4.64 5 6 C4.34 6 3.68 6 3 6 C3 5.34 3 4.68 3 4 C1.35 4.33 -0.3 4.66 -2 5 C-3.32 3.35 -4.64 1.7 -6 0 C-2.25 -1.125 -2.25 -1.125 0 0 Z " fill="#245E81" transform="translate(59,103)"></path>
  <path d="M0 0 C0.86625 0.556875 0.86625 0.556875 1.75 1.125 C0.43 2.445 -0.89 3.765 -2.25 5.125 C-3.57 4.465 -4.89 3.805 -6.25 3.125 C-6.25 2.465 -6.25 1.805 -6.25 1.125 C-2.80384615 -1.09038462 -2.80384615 -1.09038462 0 0 Z " fill="#419F9E" transform="translate(160.25,18.875)"></path>
  <path d="M0 0 C0 0.66 0 1.32 0 2 C-1.0828125 2.37125 -1.0828125 2.37125 -2.1875 2.75 C-5.24713266 4.10983674 -7.4673738 5.82917754 -10 8 C-7.95662621 2.18424383 -6.49689233 -0.52677505 0 0 Z " fill="#269BA5" transform="translate(108,2)"></path>
  <path d="M0 0 C0 3.99904969 -1.72586967 5.80200422 -4 9 C-4.66 8.67 -5.32 8.34 -6 8 C-4.125 3.25 -4.125 3.25 -3 1 C-2.01 0.67 -1.02 0.34 0 0 Z " fill="#48A38C" transform="translate(88,75)"></path>
  <path d="M0 0 C0.66 0 1.32 0 2 0 C2 1.65 2 3.3 2 5 C1.34 5 0.68 5 0 5 C0.33 6.98 0.66 8.96 1 11 C0.01 10.67 -0.98 10.34 -2 10 C-1.54177532 6.53058454 -1.10868317 3.32604951 0 0 Z " fill="#315DB2" transform="translate(22,30)"></path>
  <path d="M0 0 C2.09350689 3.4019487 2.17942163 6.05272412 2 10 C1.01 10.33 0.02 10.66 -1 11 C-1.125 3.375 -1.125 3.375 0 0 Z " fill="#18656C" transform="translate(111,9)"></path>
  <path d="M0 0 C0 0.99 0 1.98 0 3 C-2.90600261 4.25664978 -4.79604584 5 -8 5 C-8 4.01 -8 3.02 -8 2 C-6.865625 1.855625 -5.73125 1.71125 -4.5625 1.5625 C-1.19222799 1.38828522 -1.19222799 1.38828522 0 0 Z " fill="#48ADA6" transform="translate(152,19)"></path>
  <path d="M0 0 C0.99 0.33 1.98 0.66 3 1 C1.694761 3.61047801 0.64173426 3.68066423 -2.0625 4.625 C-2.79597656 4.88539062 -3.52945313 5.14578125 -4.28515625 5.4140625 C-4.85105469 5.60742188 -5.41695313 5.80078125 -6 6 C-6 5.01 -6 4.02 -6 3 C-5.195625 2.690625 -4.39125 2.38125 -3.5625 2.0625 C-1.10919595 1.23664655 -1.10919595 1.23664655 0 0 Z " fill="#156370" transform="translate(85,13)"></path>
  <path d="M0 0 C2.31 0 4.62 0 7 0 C7.33 0.99 7.66 1.98 8 3 C5.36 3 2.72 3 0 3 C0 2.01 0 1.02 0 0 Z " fill="#46C393" transform="translate(48,67)"></path>
  <path d="M0 0 C0.66 0.99 1.32 1.98 2 3 C-0.35438733 4.42944945 -1.48032433 5.08661261 -4.25 4.625 C-4.8275 4.41875 -5.405 4.2125 -6 4 C-4.02 2.68 -2.04 1.36 0 0 Z " fill="#45A08B" transform="translate(139,23)"></path>
  <path d="M0 0 C0.66 0 1.32 0 2 0 C3.85776765 3.13498292 4.20140476 5.37471432 4 9 C2.01388388 7.01388388 1.08545288 5.55856751 0 3 C0 2.01 0 1.02 0 0 Z " fill="#1C6D7C" transform="translate(57,95)"></path>
  <path d="M0 0 C0.66 0.33 1.32 0.66 2 1 C2 1.66 2 2.32 2 3 C1.01 3.33 0.02 3.66 -1 4 C-0.67 2.68 -0.34 1.36 0 0 Z M-3 3 C-2.34 3.66 -1.68 4.32 -1 5 C-2.32 5.99 -3.64 6.98 -5 8 C-4.125 4.125 -4.125 4.125 -3 3 Z " fill="#408980" transform="translate(92,25)"></path>
  <path d="" fill="#00007F" transform="translate(0,0)"></path>
  <path d="" fill="#000000" transform="translate(0,0)"></path>
  <path d="" fill="#0000FF" transform="translate(0,0)"></path>
  <path d="" fill="#000000" transform="translate(0,0)"></path>
  <path d="" fill="#000000" transform="translate(0,0)"></path>
  <path d="" fill="#000000" transform="translate(0,0)"></path>
  <path d="" fill="#000000" transform="translate(0,0)"></path>
  <path d="" fill="#0000FF" transform="translate(0,0)"></path>
  <path d="" fill="#000000" transform="translate(0,0)"></path>
  <path d="" fill="#00FF00" transform="translate(0,0)"></path>
  <path d="" fill="#000000" transform="translate(0,0)"></path>
  <path d="" fill="#0000FF" transform="translate(0,0)"></path>
  <path d="" fill="#000000" transform="translate(0,0)"></path>
  <path d="" fill="#000000" transform="translate(0,0)"></path>
  <path d="" fill="#0000FF" transform="translate(0,0)"></path>
  <path d="" fill="#000000" transform="translate(0,0)"></path>
</svg>
